<mxfile host="app.diagrams.net" modified="2021-05-17T04:20:31.594Z" agent="5.0 (Windows NT 10.0; Win64; x64) AppleWebKit/537.36 (KHTML, like Gecko) Chrome/90.0.4430.212 Safari/537.36" etag="H2PnsWNrl_fDxXJ_meUX" version="14.6.13" type="github">
  <diagram id="GKwxY_lBK4zhZFqIIOxg" name="Page-1">
    <mxGraphModel dx="4038" dy="371" grid="0" gridSize="10" guides="1" tooltips="1" connect="1" arrows="1" fold="1" page="1" pageScale="1" pageWidth="3300" pageHeight="4681" math="0" shadow="0">
      <root>
        <mxCell id="0" />
        <mxCell id="1" parent="0" />
        <mxCell id="vqaIO9CHBxHanWcZBEk2-3" value="" style="edgeStyle=orthogonalEdgeStyle;rounded=0;orthogonalLoop=1;jettySize=auto;html=1;" parent="1" source="vqaIO9CHBxHanWcZBEk2-1" target="vqaIO9CHBxHanWcZBEk2-2" edge="1">
          <mxGeometry relative="1" as="geometry" />
        </mxCell>
        <mxCell id="vqaIO9CHBxHanWcZBEk2-1" value="评测请求" style="rounded=1;whiteSpace=wrap;html=1;fillColor=#d5e8d4;strokeColor=#82b366;" parent="1" vertex="1">
          <mxGeometry x="490" y="190" width="120" height="60" as="geometry" />
        </mxCell>
        <mxCell id="vqaIO9CHBxHanWcZBEk2-5" value="" style="edgeStyle=orthogonalEdgeStyle;rounded=0;orthogonalLoop=1;jettySize=auto;html=1;" parent="1" source="vqaIO9CHBxHanWcZBEk2-2" target="vqaIO9CHBxHanWcZBEk2-4" edge="1">
          <mxGeometry relative="1" as="geometry" />
        </mxCell>
        <mxCell id="vqaIO9CHBxHanWcZBEk2-18" value="" style="edgeStyle=orthogonalEdgeStyle;rounded=0;orthogonalLoop=1;jettySize=auto;html=1;" parent="1" source="vqaIO9CHBxHanWcZBEk2-2" target="vqaIO9CHBxHanWcZBEk2-17" edge="1">
          <mxGeometry relative="1" as="geometry" />
        </mxCell>
        <mxCell id="vqaIO9CHBxHanWcZBEk2-2" value="Json解析" style="whiteSpace=wrap;html=1;rounded=1;fillColor=#d5e8d4;strokeColor=#82b366;" parent="1" vertex="1">
          <mxGeometry x="490" y="330" width="120" height="60" as="geometry" />
        </mxCell>
        <mxCell id="vqaIO9CHBxHanWcZBEk2-7" value="" style="edgeStyle=orthogonalEdgeStyle;rounded=0;orthogonalLoop=1;jettySize=auto;html=1;" parent="1" source="vqaIO9CHBxHanWcZBEk2-4" target="vqaIO9CHBxHanWcZBEk2-6" edge="1">
          <mxGeometry relative="1" as="geometry" />
        </mxCell>
        <mxCell id="vqaIO9CHBxHanWcZBEk2-4" value="base64解码" style="rounded=1;whiteSpace=wrap;html=1;fillColor=#d5e8d4;strokeColor=#82b366;" parent="1" vertex="1">
          <mxGeometry x="710" y="330" width="120" height="60" as="geometry" />
        </mxCell>
        <mxCell id="bhSyaD4v2kzt_ue01UzE-8" style="edgeStyle=orthogonalEdgeStyle;rounded=0;orthogonalLoop=1;jettySize=auto;html=1;entryX=0.5;entryY=0;entryDx=0;entryDy=0;" edge="1" parent="1" source="vqaIO9CHBxHanWcZBEk2-6" target="bhSyaD4v2kzt_ue01UzE-7">
          <mxGeometry relative="1" as="geometry" />
        </mxCell>
        <mxCell id="vqaIO9CHBxHanWcZBEk2-6" value="mp3解码" style="whiteSpace=wrap;html=1;rounded=1;fillColor=#d5e8d4;strokeColor=#82b366;" parent="1" vertex="1">
          <mxGeometry x="710" y="430" width="120" height="60" as="geometry" />
        </mxCell>
        <mxCell id="vqaIO9CHBxHanWcZBEk2-8" value="评测结果数据库" style="shape=cube;whiteSpace=wrap;html=1;boundedLbl=1;backgroundOutline=1;darkOpacity=0.05;darkOpacity2=0.1;fillColor=#d5e8d4;strokeColor=#82b366;" parent="1" vertex="1">
          <mxGeometry x="960" y="510" width="120" height="80" as="geometry" />
        </mxCell>
        <mxCell id="vqaIO9CHBxHanWcZBEk2-10" value="" style="endArrow=none;dashed=1;html=1;dashPattern=1 3;strokeWidth=2;" parent="1" edge="1">
          <mxGeometry width="50" height="50" relative="1" as="geometry">
            <mxPoint y="1270" as="sourcePoint" />
            <mxPoint x="1700" y="1270" as="targetPoint" />
          </mxGeometry>
        </mxCell>
        <mxCell id="vqaIO9CHBxHanWcZBEk2-14" value="" style="edgeStyle=orthogonalEdgeStyle;rounded=0;orthogonalLoop=1;jettySize=auto;html=1;" parent="1" source="vqaIO9CHBxHanWcZBEk2-11" target="vqaIO9CHBxHanWcZBEk2-13" edge="1">
          <mxGeometry relative="1" as="geometry" />
        </mxCell>
        <mxCell id="vqaIO9CHBxHanWcZBEk2-11" value="wav格式" style="whiteSpace=wrap;html=1;rounded=1;fillColor=#d5e8d4;strokeColor=#82b366;" parent="1" vertex="1">
          <mxGeometry x="710" y="610" width="120" height="60" as="geometry" />
        </mxCell>
        <mxCell id="vqaIO9CHBxHanWcZBEk2-16" value="" style="edgeStyle=orthogonalEdgeStyle;rounded=0;orthogonalLoop=1;jettySize=auto;html=1;" parent="1" source="vqaIO9CHBxHanWcZBEk2-13" target="vqaIO9CHBxHanWcZBEk2-15" edge="1">
          <mxGeometry relative="1" as="geometry" />
        </mxCell>
        <mxCell id="vqaIO9CHBxHanWcZBEk2-13" value="5*A处理" style="whiteSpace=wrap;html=1;rounded=1;fillColor=#d5e8d4;strokeColor=#82b366;" parent="1" vertex="1">
          <mxGeometry x="710" y="750" width="120" height="60" as="geometry" />
        </mxCell>
        <mxCell id="vqaIO9CHBxHanWcZBEk2-21" style="edgeStyle=orthogonalEdgeStyle;rounded=0;orthogonalLoop=1;jettySize=auto;html=1;entryX=0.5;entryY=0;entryDx=0;entryDy=0;" parent="1" source="vqaIO9CHBxHanWcZBEk2-15" target="vqaIO9CHBxHanWcZBEk2-19" edge="1">
          <mxGeometry relative="1" as="geometry">
            <Array as="points">
              <mxPoint x="680" y="920" />
            </Array>
          </mxGeometry>
        </mxCell>
        <mxCell id="vqaIO9CHBxHanWcZBEk2-15" value="VAD" style="whiteSpace=wrap;html=1;rounded=1;fillColor=#d5e8d4;strokeColor=#82b366;" parent="1" vertex="1">
          <mxGeometry x="710" y="890" width="120" height="60" as="geometry" />
        </mxCell>
        <mxCell id="vqaIO9CHBxHanWcZBEk2-20" style="edgeStyle=orthogonalEdgeStyle;rounded=0;orthogonalLoop=1;jettySize=auto;html=1;entryX=0.5;entryY=0;entryDx=0;entryDy=0;" parent="1" source="vqaIO9CHBxHanWcZBEk2-17" target="vqaIO9CHBxHanWcZBEk2-19" edge="1">
          <mxGeometry relative="1" as="geometry" />
        </mxCell>
        <mxCell id="vqaIO9CHBxHanWcZBEk2-17" value="评测文本" style="whiteSpace=wrap;html=1;rounded=1;fillColor=#d5e8d4;strokeColor=#82b366;" parent="1" vertex="1">
          <mxGeometry x="490" y="890" width="120" height="60" as="geometry" />
        </mxCell>
        <mxCell id="vqaIO9CHBxHanWcZBEk2-23" value="" style="edgeStyle=orthogonalEdgeStyle;rounded=0;orthogonalLoop=1;jettySize=auto;html=1;" parent="1" source="vqaIO9CHBxHanWcZBEk2-19" target="vqaIO9CHBxHanWcZBEk2-22" edge="1">
          <mxGeometry relative="1" as="geometry" />
        </mxCell>
        <mxCell id="vqaIO9CHBxHanWcZBEk2-25" value="" style="edgeStyle=orthogonalEdgeStyle;rounded=0;orthogonalLoop=1;jettySize=auto;html=1;exitX=0.5;exitY=1;exitDx=0;exitDy=0;" parent="1" source="vqaIO9CHBxHanWcZBEk2-19" target="vqaIO9CHBxHanWcZBEk2-24" edge="1">
          <mxGeometry relative="1" as="geometry" />
        </mxCell>
        <mxCell id="vqaIO9CHBxHanWcZBEk2-27" value="" style="edgeStyle=orthogonalEdgeStyle;rounded=0;orthogonalLoop=1;jettySize=auto;html=1;" parent="1" source="vqaIO9CHBxHanWcZBEk2-19" target="vqaIO9CHBxHanWcZBEk2-26" edge="1">
          <mxGeometry relative="1" as="geometry" />
        </mxCell>
        <mxCell id="vqaIO9CHBxHanWcZBEk2-19" value="评测类型" style="rhombus;whiteSpace=wrap;html=1;fillColor=#d5e8d4;strokeColor=#82b366;" parent="1" vertex="1">
          <mxGeometry x="620" y="1020" width="120" height="80" as="geometry" />
        </mxCell>
        <mxCell id="vqaIO9CHBxHanWcZBEk2-31" value="" style="edgeStyle=orthogonalEdgeStyle;rounded=0;orthogonalLoop=1;jettySize=auto;html=1;" parent="1" source="vqaIO9CHBxHanWcZBEk2-22" target="vqaIO9CHBxHanWcZBEk2-30" edge="1">
          <mxGeometry relative="1" as="geometry" />
        </mxCell>
        <mxCell id="vqaIO9CHBxHanWcZBEk2-22" value="单词评测" style="whiteSpace=wrap;html=1;fillColor=#d5e8d4;strokeColor=#82b366;" parent="1" vertex="1">
          <mxGeometry x="210" y="1030" width="120" height="60" as="geometry" />
        </mxCell>
        <mxCell id="vqaIO9CHBxHanWcZBEk2-37" value="" style="edgeStyle=orthogonalEdgeStyle;rounded=0;orthogonalLoop=1;jettySize=auto;html=1;" parent="1" source="vqaIO9CHBxHanWcZBEk2-24" target="vqaIO9CHBxHanWcZBEk2-36" edge="1">
          <mxGeometry relative="1" as="geometry" />
        </mxCell>
        <mxCell id="vqaIO9CHBxHanWcZBEk2-24" value="句子评测" style="whiteSpace=wrap;html=1;fillColor=#d5e8d4;strokeColor=#82b366;" parent="1" vertex="1">
          <mxGeometry x="620" y="1390" width="120" height="60" as="geometry" />
        </mxCell>
        <mxCell id="vqaIO9CHBxHanWcZBEk2-39" value="" style="edgeStyle=orthogonalEdgeStyle;rounded=0;orthogonalLoop=1;jettySize=auto;html=1;" parent="1" source="vqaIO9CHBxHanWcZBEk2-26" target="vqaIO9CHBxHanWcZBEk2-38" edge="1">
          <mxGeometry relative="1" as="geometry" />
        </mxCell>
        <mxCell id="vqaIO9CHBxHanWcZBEk2-26" value="托福评测" style="whiteSpace=wrap;html=1;fillColor=#d5e8d4;strokeColor=#82b366;" parent="1" vertex="1">
          <mxGeometry x="1060" y="1030" width="120" height="60" as="geometry" />
        </mxCell>
        <mxCell id="bhSyaD4v2kzt_ue01UzE-2" value="" style="edgeStyle=orthogonalEdgeStyle;rounded=0;orthogonalLoop=1;jettySize=auto;html=1;" edge="1" parent="1" source="vqaIO9CHBxHanWcZBEk2-30" target="bhSyaD4v2kzt_ue01UzE-1">
          <mxGeometry relative="1" as="geometry" />
        </mxCell>
        <mxCell id="vqaIO9CHBxHanWcZBEk2-30" value="单词发音获取" style="whiteSpace=wrap;html=1;fillColor=#d5e8d4;strokeColor=#82b366;" parent="1" vertex="1">
          <mxGeometry x="210" y="1170" width="120" height="60" as="geometry" />
        </mxCell>
        <mxCell id="vqaIO9CHBxHanWcZBEk2-32" value="go封装层" style="text;html=1;strokeColor=none;fillColor=none;align=center;verticalAlign=middle;whiteSpace=wrap;rounded=0;" parent="1" vertex="1">
          <mxGeometry x="10" y="950" width="120" height="20" as="geometry" />
        </mxCell>
        <mxCell id="vqaIO9CHBxHanWcZBEk2-33" value="C++封装层" style="text;html=1;strokeColor=none;fillColor=none;align=center;verticalAlign=middle;whiteSpace=wrap;rounded=0;" parent="1" vertex="1">
          <mxGeometry y="1300" width="120" height="20" as="geometry" />
        </mxCell>
        <mxCell id="vqaIO9CHBxHanWcZBEk2-34" value="英式DJ单词引擎" style="whiteSpace=wrap;html=1;fillColor=#fff2cc;strokeColor=#d6b656;" parent="1" vertex="1">
          <mxGeometry x="100" y="1510" width="120" height="60" as="geometry" />
        </mxCell>
        <mxCell id="vqaIO9CHBxHanWcZBEk2-36" value="句子引擎" style="whiteSpace=wrap;html=1;fillColor=#d5e8d4;strokeColor=#82b366;" parent="1" vertex="1">
          <mxGeometry x="620" y="1510" width="120" height="60" as="geometry" />
        </mxCell>
        <mxCell id="vqaIO9CHBxHanWcZBEk2-38" value="托福引擎" style="whiteSpace=wrap;html=1;fillColor=#d5e8d4;strokeColor=#82b366;" parent="1" vertex="1">
          <mxGeometry x="1060" y="1500" width="120" height="60" as="geometry" />
        </mxCell>
        <mxCell id="vqaIO9CHBxHanWcZBEk2-41" style="edgeStyle=orthogonalEdgeStyle;rounded=0;orthogonalLoop=1;jettySize=auto;html=1;entryX=0;entryY=0.5;entryDx=0;entryDy=0;" parent="1" source="vqaIO9CHBxHanWcZBEk2-40" target="vqaIO9CHBxHanWcZBEk2-30" edge="1">
          <mxGeometry relative="1" as="geometry" />
        </mxCell>
        <mxCell id="vqaIO9CHBxHanWcZBEk2-40" value="单词发音数据库" style="shape=cube;whiteSpace=wrap;html=1;boundedLbl=1;backgroundOutline=1;darkOpacity=0.05;darkOpacity2=0.1;fillColor=#d5e8d4;strokeColor=#82b366;" parent="1" vertex="1">
          <mxGeometry x="20" y="1160" width="120" height="80" as="geometry" />
        </mxCell>
        <mxCell id="xHismG0nSTA8H6pdzuH0-1" value="" style="endArrow=none;dashed=1;html=1;dashPattern=1 3;strokeWidth=2;" parent="1" edge="1">
          <mxGeometry width="50" height="50" relative="1" as="geometry">
            <mxPoint x="1240" y="1530.800048828125" as="sourcePoint" />
            <mxPoint x="1240" y="630" as="targetPoint" />
          </mxGeometry>
        </mxCell>
        <mxCell id="xHismG0nSTA8H6pdzuH0-2" value="引擎接口" style="text;html=1;strokeColor=none;fillColor=none;align=center;verticalAlign=middle;whiteSpace=wrap;rounded=0;" parent="1" vertex="1">
          <mxGeometry x="469" y="1280" width="120" height="20" as="geometry" />
        </mxCell>
        <mxCell id="xHismG0nSTA8H6pdzuH0-3" value="其他处理接口" style="text;html=1;strokeColor=none;fillColor=none;align=center;verticalAlign=middle;whiteSpace=wrap;rounded=0;" parent="1" vertex="1">
          <mxGeometry x="1578" y="1280" width="120" height="20" as="geometry" />
        </mxCell>
        <mxCell id="bhSyaD4v2kzt_ue01UzE-3" style="edgeStyle=orthogonalEdgeStyle;rounded=0;orthogonalLoop=1;jettySize=auto;html=1;entryX=0.5;entryY=0;entryDx=0;entryDy=0;exitX=0;exitY=0.5;exitDx=0;exitDy=0;" edge="1" parent="1" source="bhSyaD4v2kzt_ue01UzE-1" target="vqaIO9CHBxHanWcZBEk2-34">
          <mxGeometry relative="1" as="geometry" />
        </mxCell>
        <mxCell id="bhSyaD4v2kzt_ue01UzE-17" style="edgeStyle=orthogonalEdgeStyle;rounded=0;orthogonalLoop=1;jettySize=auto;html=1;exitX=1;exitY=0.5;exitDx=0;exitDy=0;" edge="1" parent="1" source="bhSyaD4v2kzt_ue01UzE-1" target="bhSyaD4v2kzt_ue01UzE-4">
          <mxGeometry relative="1" as="geometry" />
        </mxCell>
        <mxCell id="bhSyaD4v2kzt_ue01UzE-1" value="英式/美式" style="rhombus;whiteSpace=wrap;html=1;fillColor=#d5e8d4;strokeColor=#82b366;" vertex="1" parent="1">
          <mxGeometry x="210" y="1310" width="120" height="80" as="geometry" />
        </mxCell>
        <mxCell id="bhSyaD4v2kzt_ue01UzE-4" value="美式KK单词引擎" style="whiteSpace=wrap;html=1;fillColor=#d5e8d4;strokeColor=#82b366;" vertex="1" parent="1">
          <mxGeometry x="300" y="1510" width="120" height="60" as="geometry" />
        </mxCell>
        <mxCell id="bhSyaD4v2kzt_ue01UzE-9" style="edgeStyle=orthogonalEdgeStyle;rounded=0;orthogonalLoop=1;jettySize=auto;html=1;entryX=0.5;entryY=0;entryDx=0;entryDy=0;" edge="1" parent="1" source="bhSyaD4v2kzt_ue01UzE-7" target="vqaIO9CHBxHanWcZBEk2-11">
          <mxGeometry relative="1" as="geometry" />
        </mxCell>
        <mxCell id="bhSyaD4v2kzt_ue01UzE-10" style="edgeStyle=orthogonalEdgeStyle;rounded=0;orthogonalLoop=1;jettySize=auto;html=1;" edge="1" parent="1" source="bhSyaD4v2kzt_ue01UzE-7" target="vqaIO9CHBxHanWcZBEk2-8">
          <mxGeometry relative="1" as="geometry" />
        </mxCell>
        <mxCell id="bhSyaD4v2kzt_ue01UzE-7" value="存储中转" style="whiteSpace=wrap;html=1;rounded=1;fillColor=#d5e8d4;strokeColor=#82b366;" vertex="1" parent="1">
          <mxGeometry x="710" y="520" width="120" height="60" as="geometry" />
        </mxCell>
        <mxCell id="bhSyaD4v2kzt_ue01UzE-16" style="edgeStyle=orthogonalEdgeStyle;rounded=0;orthogonalLoop=1;jettySize=auto;html=1;entryX=1;entryY=0.5;entryDx=0;entryDy=0;" edge="1" parent="1" source="bhSyaD4v2kzt_ue01UzE-11" target="vqaIO9CHBxHanWcZBEk2-6">
          <mxGeometry relative="1" as="geometry">
            <Array as="points">
              <mxPoint x="1505" y="460" />
            </Array>
          </mxGeometry>
        </mxCell>
        <mxCell id="bhSyaD4v2kzt_ue01UzE-11" value="C++ MP3" style="whiteSpace=wrap;html=1;fillColor=#d5e8d4;strokeColor=#82b366;" vertex="1" parent="1">
          <mxGeometry x="1470" y="1290" width="70" height="60" as="geometry" />
        </mxCell>
        <mxCell id="bhSyaD4v2kzt_ue01UzE-14" style="edgeStyle=orthogonalEdgeStyle;rounded=0;orthogonalLoop=1;jettySize=auto;html=1;entryX=1;entryY=0.5;entryDx=0;entryDy=0;" edge="1" parent="1" source="bhSyaD4v2kzt_ue01UzE-12" target="vqaIO9CHBxHanWcZBEk2-15">
          <mxGeometry relative="1" as="geometry">
            <Array as="points">
              <mxPoint x="1305" y="920" />
            </Array>
          </mxGeometry>
        </mxCell>
        <mxCell id="bhSyaD4v2kzt_ue01UzE-12" value="C++ VAD" style="whiteSpace=wrap;html=1;fillColor=#d5e8d4;strokeColor=#82b366;" vertex="1" parent="1">
          <mxGeometry x="1270" y="1290" width="70" height="60" as="geometry" />
        </mxCell>
        <mxCell id="bhSyaD4v2kzt_ue01UzE-15" style="edgeStyle=orthogonalEdgeStyle;rounded=0;orthogonalLoop=1;jettySize=auto;html=1;entryX=1;entryY=0.5;entryDx=0;entryDy=0;" edge="1" parent="1" source="bhSyaD4v2kzt_ue01UzE-13" target="vqaIO9CHBxHanWcZBEk2-13">
          <mxGeometry relative="1" as="geometry">
            <Array as="points">
              <mxPoint x="1405" y="780" />
            </Array>
          </mxGeometry>
        </mxCell>
        <mxCell id="bhSyaD4v2kzt_ue01UzE-13" value="C++ 5A" style="whiteSpace=wrap;html=1;fillColor=#d5e8d4;strokeColor=#82b366;" vertex="1" parent="1">
          <mxGeometry x="1370" y="1290" width="70" height="60" as="geometry" />
        </mxCell>
      </root>
    </mxGraphModel>
  </diagram>
</mxfile>
